<svg width="51" height="52" viewBox="0 0 51 52" fill="none" xmlns="http://www.w3.org/2000/svg">
<path d="M16.575 4.33337H34.425C41.225 4.33337 46.75 9.96671 46.75 16.9V35.1C46.75 38.4329 45.4515 41.6293 43.1401 43.986C40.8287 46.3427 37.6938 47.6667 34.425 47.6667H16.575C9.775 47.6667 4.25 42.0334 4.25 35.1V16.9C4.25 13.5672 5.54852 10.3708 7.85991 8.01407C10.1713 5.65736 13.3062 4.33337 16.575 4.33337ZM16.15 8.66671C14.1211 8.66671 12.1753 9.48849 10.7406 10.9513C9.30598 12.4141 8.5 14.398 8.5 16.4667V35.5334C8.5 39.845 11.9212 43.3334 16.15 43.3334H34.85C36.8789 43.3334 38.8247 42.5116 40.2594 41.0488C41.694 39.586 42.5 37.6021 42.5 35.5334V16.4667C42.5 12.155 39.0787 8.66671 34.85 8.66671H16.15ZM36.6562 11.9167C37.3607 11.9167 38.0364 12.202 38.5345 12.71C39.0326 13.2179 39.3125 13.9067 39.3125 14.625C39.3125 15.3433 39.0326 16.0322 38.5345 16.5401C38.0364 17.048 37.3607 17.3334 36.6562 17.3334C35.9518 17.3334 35.2761 17.048 34.778 16.5401C34.2798 16.0322 34 15.3433 34 14.625C34 13.9067 34.2798 13.2179 34.778 12.71C35.2761 12.202 35.9518 11.9167 36.6562 11.9167ZM25.5 15.1667C28.3179 15.1667 31.0204 16.3081 33.013 18.3397C35.0056 20.3714 36.125 23.1269 36.125 26C36.125 28.8732 35.0056 31.6287 33.013 33.6604C31.0204 35.692 28.3179 36.8334 25.5 36.8334C22.6821 36.8334 19.9796 35.692 17.987 33.6604C15.9944 31.6287 14.875 28.8732 14.875 26C14.875 23.1269 15.9944 20.3714 17.987 18.3397C19.9796 16.3081 22.6821 15.1667 25.5 15.1667ZM25.5 19.5C23.8092 19.5 22.1877 20.1849 20.9922 21.4038C19.7966 22.6228 19.125 24.2761 19.125 26C19.125 27.7239 19.7966 29.3772 20.9922 30.5962C22.1877 31.8152 23.8092 32.5 25.5 32.5C27.1908 32.5 28.8123 31.8152 30.0078 30.5962C31.2033 29.3772 31.875 27.7239 31.875 26C31.875 24.2761 31.2033 22.6228 30.0078 21.4038C28.8123 20.1849 27.1908 19.5 25.5 19.5Z" fill="#F8F8F8"/>
</svg>
