<svg width="50" height="51" viewBox="0 0 50 51" fill="none" xmlns="http://www.w3.org/2000/svg">
<path d="M25 6.375C21.1323 6.375 17.4229 7.94218 14.688 10.7318C11.9531 13.5214 10.4167 17.3049 10.4167 21.25C10.4167 27.3317 14.1292 33.1989 18.2042 37.7442C20.2889 40.0586 22.5623 42.1884 25 44.1107C27.4376 42.1899 29.711 40.0615 31.7958 37.7485C35.8708 33.1989 39.5833 27.3339 39.5833 21.25C39.5833 17.3049 38.0469 13.5214 35.312 10.7318C32.5771 7.94218 28.8677 6.375 25 6.375ZM25 49.3298L23.8187 48.501L23.8125 48.4968L23.8 48.4861L23.7583 48.4564L23.6021 48.3438C22.7394 47.7041 21.896 47.038 21.0729 46.3462C18.9633 44.5786 16.9772 42.6628 15.1292 40.613C10.8708 35.8615 6.25 28.9786 6.25 21.25C6.25 16.1777 8.22544 11.3132 11.7417 7.72658C15.2581 4.13995 20.0272 2.125 25 2.125C29.9728 2.125 34.7419 4.13995 38.2582 7.72658C41.7746 11.3132 43.75 16.1777 43.75 21.25C43.75 28.9786 39.1292 35.8636 34.8708 40.613C32.4581 43.2898 29.811 45.7366 26.9625 47.923C26.7251 48.1039 26.4855 48.2817 26.2437 48.4564L26.2 48.4861L26.1875 48.4968L26.1833 48.4989L25 49.3298ZM25 17C23.8949 17 22.8351 17.4478 22.0537 18.2448C21.2723 19.0418 20.8333 20.1228 20.8333 21.25C20.8333 22.3772 21.2723 23.4582 22.0537 24.2552C22.8351 25.0522 23.8949 25.5 25 25.5C26.1051 25.5 27.1649 25.0522 27.9463 24.2552C28.7277 23.4582 29.1667 22.3772 29.1667 21.25C29.1667 20.1228 28.7277 19.0418 27.9463 18.2448C27.1649 17.4478 26.1051 17 25 17ZM16.6667 21.25C16.6667 18.9957 17.5446 16.8337 19.1074 15.2396C20.6702 13.6455 22.7899 12.75 25 12.75C27.2101 12.75 29.3298 13.6455 30.8926 15.2396C32.4554 16.8337 33.3333 18.9957 33.3333 21.25C33.3333 23.5043 32.4554 25.6663 30.8926 27.2604C29.3298 28.8545 27.2101 29.75 25 29.75C22.7899 29.75 20.6702 28.8545 19.1074 27.2604C17.5446 25.6663 16.6667 23.5043 16.6667 21.25Z" fill="white"/>
</svg>
