<svg width="102" height="90" viewBox="0 0 102 90" fill="none" xmlns="http://www.w3.org/2000/svg">
<g clip-path="url(#clip0_58_55)">
<path d="M38.25 0H0V33.75H38.25V0ZM31.875 28.125H6.375V5.625H31.875V28.125Z" fill="white"/>
<path d="M12.75 11.25H25.5V22.5H12.75V11.25ZM0 90H38.25V56.25H0V90ZM6.375 61.875H31.875V84.375H6.375V61.875Z" fill="white"/>
<path d="M12.75 67.5H25.5V78.75H12.75V67.5ZM63.75 0V33.75H102V0H63.75ZM95.625 28.125H70.125V5.625H95.625V28.125Z" fill="white"/>
<path d="M76.5 11.25H89.25V22.5H76.5V11.25ZM12.75 39.375H0V50.625H19.125V45H12.75V39.375ZM44.625 50.625H57.375V61.875H44.625V50.625ZM19.125 39.375H31.875V45H19.125V39.375ZM57.375 67.5H44.625V73.125H51V78.75H57.375V73.125V67.5ZM38.25 39.375V45H31.875V50.625H44.625V39.375H38.25ZM51 22.5H57.375V33.75H51V22.5ZM57.375 45V50.625H70.125V39.375H51V45H57.375ZM44.625 33.75H51V39.375H44.625V33.75ZM57.375 78.75H70.125V90H57.375V78.75ZM44.625 78.75H51V90H44.625V78.75ZM57.375 61.875H63.75V67.5H57.375V61.875ZM57.375 16.875V5.625H51V0H44.625V22.5H51V16.875H57.375ZM76.5 78.75H82.875V90H76.5V78.75ZM76.5 67.5H89.25V73.125H76.5V67.5ZM70.125 73.125H76.5V78.75H70.125V73.125ZM63.75 67.5H70.125V73.125H63.75V67.5ZM89.25 56.25V61.875H95.625V67.5H102V56.25H95.625H89.25ZM95.625 73.125H89.25V90H102V78.75H95.625V73.125ZM63.75 56.25V61.875H82.875V50.625H70.125V56.25H63.75ZM76.5 39.375V45H89.25V50.625H102V39.375H89.25H76.5Z" fill="white"/>
</g>
<defs>
<clipPath id="clip0_58_55">
<rect width="102" height="90" fill="white"/>
</clipPath>
</defs>
</svg>
