<svg width="50" height="52" viewBox="0 0 50 52" fill="none" xmlns="http://www.w3.org/2000/svg">
<g clip-path="url(#clip0_58_34)">
<path fill-rule="evenodd" clip-rule="evenodd" d="M37.1188 15.1428C36.3834 14.0421 34.4167 12.4951 31.2313 13.1625C29.3729 13.5503 28.2625 14.5058 27.5563 15.7668C26.8042 17.1101 26.4396 18.9366 26.4396 21.0621C26.4396 21.6368 26.2201 22.1879 25.8294 22.5942C25.4387 23.0005 24.9088 23.2288 24.3563 23.2288C19.4271 23.2288 14.7354 21.7056 10.7875 17.5868C10.4895 19.2579 10.3721 20.9585 10.4375 22.6568C10.5479 25.0098 11.0875 27.3693 12.3688 29.3908C13.6292 31.3776 15.7021 33.1976 19.1688 34.3416C19.5085 34.4537 19.8148 34.6545 20.0586 34.9249C20.3024 35.1952 20.4754 35.5261 20.5611 35.8859C20.6467 36.2456 20.6423 36.6222 20.5481 36.9797C20.4539 37.3371 20.2731 37.6634 20.0229 37.9275C18.9125 39.112 17.654 40.1358 16.2813 40.9716C18.4896 41.21 20.6188 41.2273 22.5938 41.041C26.5938 40.664 29.7792 39.4745 31.7709 37.791C35.9646 34.255 38.2084 28.9813 37.7917 20.1456C37.7209 18.694 39.0688 17.1275 39.7188 15.938C38.7375 16.1286 37.7542 16.094 37.1188 15.1428ZM9.57086 10.7986C9.94806 10.753 10.3301 10.8155 10.6756 10.9793C11.0211 11.1432 11.317 11.4021 11.5313 11.7281C14.6063 16.406 18.2979 18.3516 22.3959 18.7936C22.5959 16.9715 23.0688 15.171 23.9584 13.585C25.2625 11.258 27.3834 9.54629 30.4125 8.91362C34.6 8.03829 37.7875 9.61562 39.6354 11.5461L43.3688 10.8203C43.7594 10.7442 44.1629 10.7858 44.5315 10.9404C44.9002 11.095 45.2186 11.356 45.4492 11.6927C45.6798 12.0294 45.8131 12.4276 45.8331 12.8404C45.8532 13.2533 45.7593 13.6635 45.5625 14.0226L41.9792 20.5703C42.3063 30.0191 39.7813 36.6145 34.3979 41.158C31.5438 43.5673 27.4563 44.9345 22.9709 45.357C18.45 45.7816 13.3396 45.2681 8.26045 43.7255C7.82647 43.5938 7.44545 43.3189 7.17487 42.9423C6.9043 42.5657 6.75886 42.1077 6.76051 41.6376C6.76216 41.1674 6.9108 40.7106 7.184 40.336C7.45721 39.9615 7.84014 39.6895 8.27503 39.5611C10.8292 38.805 12.775 38.1528 14.5313 37.011C12.0334 35.633 10.1938 33.8303 8.8917 31.7763C7.08336 28.9206 6.41253 25.7356 6.2792 22.8648C6.14586 19.994 6.54378 17.3333 6.96461 15.4158C7.2042 14.3216 7.48336 13.2253 7.86878 12.1766C8.00473 11.807 8.23544 11.4831 8.53587 11.2402C8.8363 10.9972 9.19288 10.8445 9.57086 10.7986Z" fill="white"/>
</g>
<defs>
<clipPath id="clip0_58_34">
<rect width="50" height="52" fill="white"/>
</clipPath>
</defs>
</svg>
