<svg width="51" height="51" viewBox="0 0 51 51" fill="none" xmlns="http://www.w3.org/2000/svg">
<path d="M28.9744 4.00908C29.164 4.00908 29.2731 4.01705 29.2731 4.01705H33.4352L33.4138 8.7983H29.2796C27.0045 8.7983 27.0571 10.741 27.0571 10.741V18.3209H35.1071L33.9835 23.0958H27.0308V46.9909H22.2543L22.2511 23.0958H15.9056L15.8929 18.3209H22.2535V10.8908C22.2542 4.41225 27.6348 4.00908 28.9744 4.00908ZM28.9744 0.821533C27.8285 0.821533 25.5891 1.01124 23.4679 2.28943C21.4597 3.49749 19.0667 5.97174 19.0667 10.8901V15.1326H15.8936C15.0465 15.1326 14.2345 15.4705 13.6352 16.0698C13.3391 16.3671 13.1047 16.7198 12.9452 17.1079C12.7858 17.496 12.7045 17.9118 12.7061 18.3313L12.7189 23.1062C12.7252 24.8617 14.1508 26.2825 15.9064 26.2825H19.0644L19.0676 46.9901C19.0676 48.7504 20.4948 50.1776 22.2551 50.1776H27.0316C28.7918 50.1776 30.2191 48.7504 30.2191 46.9901V26.2825H33.9843C35.3988 26.2825 36.6442 25.3502 37.0427 23.9932L38.1663 19.2182C38.4492 18.2549 38.261 17.2134 37.6587 16.4108C37.3622 16.014 36.9773 15.6918 36.5345 15.4699C36.0916 15.2481 35.6031 15.1326 35.1078 15.1327H30.2453V11.9874L33.4144 11.9858C35.1684 11.9858 36.594 10.5682 36.6019 8.81265L36.6234 4.19316C36.6266 4.13451 36.6282 4.07579 36.6282 4.01705C36.6282 2.25675 35.2042 0.829552 33.444 0.829552H29.3632C29.2715 0.82477 29.1393 0.821583 28.9744 0.821533Z" fill="#F8F8F8"/>
</svg>
