<svg width="127" height="79" viewBox="0 0 127 79" fill="none" xmlns="http://www.w3.org/2000/svg">
<path d="M70.6062 16.4312C70.0094 12.5 72.7812 8.96875 77.0156 7.675C77.767 7.44525 78.5778 7.51065 79.2827 7.85787C79.9876 8.20508 80.5335 8.80799 80.8094 9.54375L82.1687 13.1687C82.3876 13.7519 82.4271 14.3872 82.2824 14.993C82.1376 15.5988 81.8151 16.1475 81.3562 16.5687L77.3125 20.2719C77.1132 20.4548 76.9646 20.6862 76.8814 20.9436C76.7981 21.201 76.783 21.4756 76.8375 21.7406L76.875 21.9031L76.9719 22.3094C77.4748 24.2833 78.241 26.1805 79.25 27.95C80.3491 29.8303 81.7131 31.5426 83.3 33.0344L83.425 33.1469C83.6269 33.3261 83.8717 33.4499 84.1357 33.5063C84.3997 33.5627 84.6738 33.5498 84.9312 33.4687L90.1594 31.8219C90.7535 31.6353 91.3899 31.6306 91.9868 31.8082C92.5837 31.9858 93.1139 32.3377 93.5094 32.8187L95.9844 35.8219C97.0156 37.0719 96.8906 38.9094 95.7062 40.0125C92.4656 43.0344 88.0094 43.6531 84.9094 41.1625C81.1094 38.0974 77.9061 34.3591 75.4594 30.1344C72.9928 25.9129 71.3483 21.2638 70.6062 16.4312ZM80.1125 21.9469L83.4625 18.8719C84.3807 18.0298 85.0263 16.9325 85.3164 15.7209C85.6066 14.5092 85.5279 13.2385 85.0906 12.0719L83.7344 8.44687C83.1792 6.9671 82.0809 5.75455 80.6631 5.05611C79.2454 4.35767 77.6147 4.22585 76.1031 4.6875C70.8437 6.29687 66.6219 11.0125 67.5156 16.9031C68.1406 21.0156 69.5812 26.2469 72.7594 31.7094C75.3991 36.2647 78.8545 40.2953 82.9531 43.6C87.6031 47.3344 93.8094 46.0594 97.8406 42.3031C98.9941 41.2291 99.6942 39.7554 99.7982 38.1828C99.9022 36.6101 99.4021 35.0571 98.4 33.8406L95.925 30.8344C95.1332 29.8734 94.0725 29.1708 92.8787 28.8167C91.685 28.4625 90.4127 28.4731 89.225 28.8469L84.8844 30.2125C83.7636 29.057 82.782 27.7743 81.9594 26.3906C81.1647 24.9917 80.5455 23.5003 80.1156 21.95" fill="white"/>
</svg>
